<svg id="visual" viewBox="0 0 300 300" width="300" height="300" xmlns="http://www.w3.org/2000/svg" xmlns:xlink="http://www.w3.org/1999/xlink" version="1.1"><g transform="translate(163.0989375668533 132.7357050059337)"><path d="M44.1 -64.9C49.2 -48.3 39.9 -26.8 44.5 -6.9C49.2 13.1 67.9 31.5 70.8 54.4C73.7 77.2 60.8 104.4 39.3 115.5C17.8 126.5 -12.3 121.5 -41.9 112.1C-71.6 102.7 -100.7 88.8 -97.1 68.8C-93.5 48.8 -57.1 22.6 -37.4 7.7C-17.8 -7.2 -14.9 -10.8 -11.5 -27.7C-8 -44.6 -4 -74.8 7.7 -84C19.5 -93.2 39 -81.5 44.1 -64.9" fill="#1D7C05"></path></g></svg>