<svg id="visual" viewBox="0 0 300 300" width="300" height="300" xmlns="http://www.w3.org/2000/svg" xmlns:xlink="http://www.w3.org/1999/xlink" version="1.1"><g transform="translate(133.48762403877276 147.82838162465532)"><path d="M65.7 -106.9C82.4 -91.5 91.2 -68.6 103.7 -46C116.2 -23.3 132.3 -1 128.6 17.9C124.9 36.7 101.4 52.1 83.4 71.4C65.3 90.7 52.8 114 33.4 124.8C13.9 135.6 -12.5 134 -33.8 123.8C-55.1 113.6 -71.4 94.8 -82.6 75.2C-93.7 55.7 -99.8 35.5 -93.7 18.9C-87.7 2.4 -69.4 -10.5 -62.2 -29.3C-55 -48.1 -58.9 -72.8 -50.3 -92C-41.8 -111.1 -20.9 -124.5 1.8 -127.3C24.5 -130.1 49 -122.3 65.7 -106.9" fill="#1D7C05"></path></g></svg>