<svg id="visual" viewBox="0 0 300 300" width="300" height="300" xmlns="http://www.w3.org/2000/svg" xmlns:xlink="http://www.w3.org/1999/xlink" version="1.1"><g transform="translate(174.6901504043434 148.7985029622293)"><path d="M40.9 -47.2C57.6 -34.6 79 -26.2 83.4 -13C87.8 0.2 75.1 18.1 64.4 37.6C53.7 57.2 45 78.4 29.7 85.9C14.4 93.3 -7.5 87.1 -33.8 82.1C-60 77.2 -90.6 73.6 -110.4 55.8C-130.1 38 -138.9 6 -130.5 -19.7C-122 -45.5 -96.4 -64.9 -71.8 -76C-47.1 -87.2 -23.6 -90.1 -5.8 -83.2C12.1 -76.4 24.1 -59.7 40.9 -47.2" fill="#1D7C05"></path></g></svg>