<svg id="visual" viewBox="0 0 300 300" width="300" height="300" xmlns="http://www.w3.org/2000/svg" xmlns:xlink="http://www.w3.org/1999/xlink" version="1.1"><g transform="translate(140.31210839152618 172.67371577660495)"><path d="M75.6 -90.3C86.9 -80.6 77.4 -46.3 81.4 -15.6C85.4 15.2 102.9 42.3 92.6 47.3C82.4 52.2 44.4 34.9 21.9 29.9C-0.5 24.9 -7.4 32.2 -25.4 39C-43.4 45.8 -72.3 52.2 -76 44.5C-79.7 36.9 -58.1 15.2 -56.6 -12.9C-55.1 -41.1 -73.9 -75.7 -67.8 -86.3C-61.7 -96.9 -30.9 -83.4 0.6 -84.2C32.1 -85 64.3 -99.9 75.6 -90.3" fill="#1D7C05"></path></g></svg>